<svg width="32" height="32" viewBox="0 0 32 32" fill="none" xmlns="http://www.w3.org/2000/svg">
<circle cx="16" cy="16" r="15.52" fill="white" stroke="#6869E7" stroke-width="0.96"/>
<path d="M11.2128 17.9434C11.5515 17.6812 11.9343 17.4812 12.3431 17.3529C12.3817 17.3404 12.4208 17.3264 12.4603 17.3122C12.6297 17.2514 12.8065 17.188 12.9889 17.2255C13.2323 17.262 13.4526 17.3897 13.6052 17.5826C13.6117 17.592 13.6146 17.6035 13.6131 17.6149C13.6116 17.6263 13.6059 17.6367 13.5972 17.6442L13.5922 17.6472C13.4112 17.7687 13.2097 17.8567 12.9975 17.9071C12.887 17.94 12.7727 17.9243 12.6562 17.9083C12.583 17.8983 12.5089 17.8882 12.4343 17.8898C12.0351 17.8929 11.637 17.9304 11.2443 18.0019C11.2398 18.0031 11.2352 18.0034 11.2306 18.0027C11.226 18.0021 11.2216 18.0006 11.2177 17.9982C11.2137 17.9959 11.2102 17.9928 11.2075 17.9891C11.2048 17.9853 11.2028 17.9811 11.2017 17.9766C11.2007 17.9706 11.2011 17.9644 11.2031 17.9586C11.205 17.9528 11.2084 17.9476 11.2128 17.9434Z" fill="#6869E7"/>
<path fill-rule="evenodd" clip-rule="evenodd" d="M14.7996 18.1354C14.7992 18.1491 14.7959 18.1625 14.7899 18.1747C14.7838 18.187 14.7751 18.1977 14.7644 18.2062L14.6091 18.3294C14.2277 18.6317 13.8462 18.934 13.4586 19.2289C13.1148 19.4976 12.7664 19.757 12.4174 20.0167C12.3665 20.0546 12.3157 20.0924 12.2649 20.1303L12.1169 20.2405C12.1009 20.2524 12.0815 20.2589 12.0615 20.259C12.0415 20.259 12.022 20.2525 12.006 20.2405L11.9444 20.1968C11.2033 19.6441 10.4987 19.086 9.84028 18.5646L9.79361 18.5276C9.78175 18.5181 9.7724 18.5059 9.76639 18.4919C9.76037 18.478 9.75787 18.4627 9.7591 18.4476L9.97171 15.8937C9.97357 15.8706 9.98406 15.8491 10.0011 15.8335C10.0181 15.8179 10.0404 15.8092 10.0635 15.8093L14.7435 16.1836C14.7669 16.1857 14.7886 16.1964 14.8044 16.2138C14.8201 16.2311 14.8288 16.2538 14.8285 16.2772L14.7996 18.1354ZM9.97412 18.399C10.7136 18.8879 11.3848 19.3337 12.0534 19.8004C12.4337 19.4925 12.8133 19.1902 13.1984 18.8922C13.5836 18.5942 13.9595 18.3054 14.3429 18.016L14.3971 17.9748L14.4587 16.5242L10.2299 16.0975L9.97412 18.399Z" fill="#6869E7"/>
<path d="M23.4293 24.6841C23.6235 24.6922 23.8165 24.7176 24.0062 24.7598C24.0082 24.7613 24.0105 24.7623 24.013 24.7628C24.0155 24.7633 24.018 24.7632 24.0204 24.7625C24.0229 24.7619 24.0251 24.7607 24.027 24.759C24.0289 24.7574 24.0304 24.7553 24.0314 24.753C24.0322 24.7498 24.0322 24.7465 24.0312 24.7433C24.0302 24.7402 24.0284 24.7373 24.0259 24.7352C23.866 24.6015 23.6836 24.4972 23.4873 24.4273C23.4691 24.4206 23.4508 24.4133 23.4323 24.4059L23.4323 24.4059C23.3505 24.3731 23.2654 24.339 23.1754 24.354C23.0557 24.3664 22.9453 24.4244 22.8673 24.516C22.8636 24.5206 22.8619 24.5264 22.8625 24.5323C22.8631 24.5381 22.8659 24.5435 22.8704 24.5474C22.9563 24.6096 23.0527 24.6559 23.1551 24.6841C23.2074 24.7005 23.2625 24.6949 23.3188 24.6893C23.3553 24.6856 23.3922 24.6819 23.4293 24.6841Z" fill="#6869E7"/>
<path d="M26.2666 23.5425C26.3387 23.4646 26.3961 23.3743 26.4361 23.2759L26.4373 23.2735C26.4378 23.2721 26.4382 23.2707 26.4383 23.2692C26.4384 23.269 26.4384 23.2687 26.4384 23.2684C26.4385 23.2682 26.4385 23.268 26.4385 23.2678C26.4385 23.2668 26.4385 23.2659 26.4385 23.2649C26.4383 23.262 26.4375 23.2592 26.4362 23.2566C26.436 23.2562 26.4357 23.2558 26.4355 23.2554C26.4355 23.2554 26.4355 23.2554 26.4355 23.2553C26.4351 23.2548 26.4348 23.2543 26.4345 23.2538C26.434 23.2532 26.4335 23.2525 26.433 23.2519C26.4328 23.2518 26.4327 23.2516 26.4325 23.2515C26.432 23.2509 26.4314 23.2504 26.4308 23.2499C26.4297 23.249 26.4286 23.2482 26.4275 23.2476C26.4261 23.2468 26.4247 23.2462 26.4232 23.2458C26.3092 23.2092 26.1856 23.2173 26.0774 23.2685C25.994 23.3025 25.9397 23.3762 25.8876 23.4468C25.8755 23.4633 25.8635 23.4795 25.8513 23.4951C25.7213 23.6579 25.6214 23.8424 25.5561 24.04C25.555 24.0431 25.5549 24.0464 25.5556 24.0496C25.5564 24.0527 25.5581 24.0556 25.5604 24.0579C25.5619 24.0596 25.5637 24.061 25.5658 24.0619C25.5664 24.0621 25.567 24.0624 25.5676 24.0626C25.5681 24.0627 25.5686 24.0629 25.5692 24.063C25.5693 24.063 25.5695 24.063 25.5696 24.0631C25.5699 24.0631 25.5702 24.0632 25.5705 24.0632C25.5711 24.0633 25.5717 24.0633 25.5723 24.0633C25.5723 24.0633 25.5724 24.0633 25.5724 24.0633C25.5747 24.0633 25.5769 24.0628 25.579 24.0619C25.5811 24.061 25.5829 24.0596 25.5844 24.0579C25.7237 23.9223 25.8742 23.7987 26.0343 23.6885C26.064 23.6677 26.0966 23.6517 26.1286 23.636C26.1804 23.6106 26.2309 23.5858 26.2666 23.5425Z" fill="#6869E7"/>
<path fill-rule="evenodd" clip-rule="evenodd" d="M27.0294 25.0467C26.4619 25.543 25.784 25.8077 25.2515 25.9851C24.6271 26.1828 23.983 26.3116 23.3306 26.3693C23.0964 26.3902 22.8801 26.4 22.6687 26.4C22.5596 26.4 22.4499 26.397 22.3402 26.3914C21.9933 26.381 21.65 26.3168 21.3228 26.2012C20.6665 25.9549 20.1229 25.5516 19.6336 25.1545C19.1404 24.742 18.6709 24.3021 18.2273 23.8369C17.9302 23.529 17.64 23.2125 17.3589 22.9041C17.2176 22.7489 17.0773 22.5956 16.938 22.4441C16.8489 22.342 16.7477 22.251 16.6367 22.1732C16.5418 22.1071 16.4372 22.0467 16.3261 21.9826L16.3261 21.9826L16.326 21.9825L16.3259 21.9825L16.315 21.9762L16.2533 21.9399L16.2525 21.9394L16.2525 21.9394C16.0121 21.8002 15.6485 21.5897 15.4306 21.2189C15.2008 20.8267 15.2143 20.392 15.2667 20.0965C15.3246 19.754 15.4304 19.4213 15.581 19.1082C15.6315 19.0165 15.6937 18.9317 15.7659 18.8558C15.8342 18.7863 15.9098 18.7244 15.9914 18.6711C16.0382 18.6407 16.0807 18.6043 16.1178 18.5627C16.1511 18.5176 16.1797 18.4691 16.2028 18.418C16.2303 18.3603 16.253 18.3004 16.2706 18.2389C16.2977 18.1463 16.3324 18.0561 16.3741 17.9692C16.4635 17.8036 16.5845 17.6572 16.7303 17.5382C16.9936 17.3264 17.2871 17.1551 17.6011 17.0302C17.9027 16.9068 18.2137 16.8078 18.5311 16.7341C18.8465 16.6587 19.168 16.6113 19.4918 16.5925C19.5572 16.5894 19.6219 16.5869 19.6872 16.5869H19.7008C19.6773 16.5611 19.6539 16.5358 19.6305 16.5118C19.5834 16.462 19.5298 16.4111 19.4741 16.3584L19.4555 16.3407L19.3748 16.2655C19.2725 16.1676 19.1849 16.0808 19.1079 15.9909C19.0194 15.8935 18.9371 15.7907 18.8614 15.6831L18.7998 15.595C18.7523 15.5236 18.7123 15.4639 18.6617 15.398C18.3917 15.0499 18.0569 14.7572 17.6757 14.536C17.2739 14.2897 16.8326 14.142 16.4148 14.0084C15.9698 13.8612 15.5172 13.7378 15.059 13.6389C14.5852 13.5339 14.1017 13.4788 13.6163 13.4745C13.1897 13.4718 12.7647 13.5271 12.353 13.6389C11.5814 13.8464 10.8049 14.283 9.97787 14.9738C9.61834 15.2754 9.27559 15.5965 8.95117 15.9355C8.90579 15.9824 8.8598 16.0293 8.81395 16.076L8.81393 16.076C8.76764 16.1232 8.72151 16.1702 8.67631 16.2169C8.44028 16.457 8.19685 16.7058 7.97253 16.9613C7.40926 17.5911 6.89159 18.3257 6.34373 19.272C5.90738 20.0266 5.49088 20.8109 5.08462 21.5759L5.08417 21.5768C5.04935 21.6423 5.0146 21.7078 4.97993 21.773L4.96883 21.794C4.96097 21.8088 4.94917 21.8213 4.93472 21.83C4.92028 21.8387 4.90373 21.8432 4.88687 21.8432C3.95692 21.7853 3.37146 20.7657 3.85092 20.0109L14.375 3.43117C14.7059 2.90966 15.5335 2.90966 15.8645 3.43117L18.9082 8.22443C19.1427 8.58776 19.2674 9.01091 19.2674 9.44322C19.2674 9.87552 19.1427 10.2987 18.9082 10.662L17.0594 13.5718C17.3836 13.6841 17.6958 13.8285 17.9912 14.0028C18.4418 14.264 18.8373 14.6101 19.156 15.0218C19.2127 15.0945 19.2712 15.1819 19.3205 15.257L19.3686 15.3284C19.4306 15.416 19.4977 15.4999 19.5695 15.5796C19.6434 15.6615 19.7223 15.7416 19.8043 15.821L19.8739 15.8869C19.8955 15.9068 19.9173 15.9276 19.9394 15.9486L19.94 15.9492L19.9401 15.9493L19.9402 15.9493C19.9615 15.9695 19.983 15.9899 20.0046 16.01L21.1139 14.2596C21.475 13.6913 22.3772 13.6913 22.7384 14.2596L26.5296 20.2319C26.6472 20.4136 26.6985 20.6303 26.6749 20.8453C26.6514 21.0604 26.5543 21.2608 26.4002 21.4128C26.8606 21.8044 27.2414 22.3499 27.5021 22.9995C27.5768 23.1666 27.631 23.3421 27.6636 23.5222C27.6925 23.7191 27.6824 23.9197 27.634 24.1127C27.5471 24.4495 27.3437 24.7641 27.0294 25.0467ZM25.9382 21.8309C26.356 22.1646 26.6894 22.6368 26.9304 23.2328C26.9854 23.3521 27.0263 23.4773 27.0524 23.606C27.0692 23.7219 27.0635 23.84 27.0357 23.9538C26.9815 24.1656 26.8367 24.3824 26.6179 24.5794C26.2543 24.8996 25.7459 25.1637 25.0643 25.3866C24.4834 25.5703 23.8841 25.6901 23.2771 25.7437C23.0645 25.7622 22.8599 25.7714 22.6695 25.7714C22.5709 25.7714 22.4729 25.7689 22.3755 25.764C22.0902 25.7568 21.8079 25.7051 21.5386 25.6107C20.9618 25.3952 20.4287 24.9925 20.0287 24.6662C19.5534 24.2686 19.1008 23.8448 18.673 23.3966C18.3833 23.098 18.1109 22.7994 17.8225 22.4823C17.6804 22.3259 17.5366 22.1689 17.3911 22.0113C17.2719 21.8769 17.137 21.7572 16.9893 21.6548C16.8709 21.5721 16.7536 21.5042 16.6399 21.4383L16.6331 21.4344L16.5635 21.395C16.325 21.257 16.0828 21.1062 15.97 20.8981C15.8757 20.7331 15.8467 20.504 15.8788 20.2042C15.8812 20.2014 15.8835 20.1987 15.8859 20.1959C15.8869 20.1948 15.8879 20.1936 15.8889 20.1924C15.892 20.1888 15.8951 20.1852 15.8982 20.1816C15.9294 20.1452 15.961 20.1084 15.9946 20.0712C16.1438 19.8653 16.3214 19.6817 16.5222 19.5257C16.7084 19.3806 16.9314 19.2902 17.1662 19.2646L17.3665 19.2677H17.4829C17.5213 19.2687 17.5597 19.2645 17.597 19.2554C17.7683 19.2253 17.9269 19.145 18.0524 19.0245C18.1631 18.9093 18.2649 18.7858 18.3568 18.6551C18.4234 18.5604 18.4952 18.4696 18.5719 18.3829C18.7358 18.1944 18.9343 18.0389 19.1567 17.9248C19.2685 17.8697 19.3836 17.8214 19.5012 17.7802C19.5456 17.7685 19.5893 17.7555 19.6331 17.7426C19.7159 17.7166 19.8003 17.696 19.8858 17.681C19.9227 17.6717 19.9597 17.6607 19.9967 17.6498C20.0059 17.6471 20.0152 17.6443 20.0244 17.6416C20.1054 17.6164 20.1877 17.5959 20.2709 17.5801C20.2863 17.5775 20.3014 17.5743 20.3165 17.5711C20.327 17.5689 20.3374 17.5667 20.348 17.5647C20.3495 17.5679 20.3511 17.571 20.3527 17.5741C20.3557 17.5799 20.3587 17.5856 20.3618 17.5913C20.3628 17.5932 20.3639 17.5951 20.3649 17.597L20.365 17.5971C20.3689 17.6043 20.3729 17.6117 20.3769 17.6195C20.5847 18.0326 20.7602 18.4612 20.902 18.9014L20.9236 18.9685C20.9294 18.9859 20.9401 19.0012 20.9544 19.0128L21.0012 19.0491C21.1238 19.145 21.2293 19.213 21.3391 19.2837C21.3391 19.2837 21.3391 19.2837 21.3392 19.2838L21.3525 19.2923L21.4234 19.3379L21.8301 19.5903L22.6448 20.0792L22.8506 20.2023C23.0546 20.3224 23.2562 20.4406 23.4731 20.5638C23.7775 20.7251 24.0875 20.8611 24.3543 20.9763L24.3975 20.9948L24.4158 21.0027C24.9748 21.2448 25.5053 21.4746 25.9382 21.8309ZM17.3732 18.9143L17.1513 18.9112C16.8445 18.9409 16.5525 19.0573 16.3095 19.2468C16.2158 19.3185 16.1271 19.3965 16.0439 19.4801C16.0463 19.473 16.0488 19.4658 16.0512 19.4586L16.0514 19.4581C16.0623 19.4258 16.0733 19.3933 16.0864 19.3637C16.1329 19.258 16.2091 19.1679 16.3058 19.1045C16.3892 19.041 16.4637 18.9664 16.527 18.8829C16.5829 18.8008 16.6292 18.7126 16.6651 18.62C16.6987 18.5336 16.7261 18.4449 16.747 18.3546C16.7603 18.2935 16.7784 18.2336 16.8013 18.1754C16.8558 18.0593 16.9322 17.9548 17.0262 17.8676C17.3855 17.5351 17.8896 17.274 18.6131 17.0481C18.9073 16.9568 19.2084 16.8897 19.5135 16.8474C19.636 16.8307 19.7595 16.8219 19.8832 16.8209H19.8882C20.0041 16.9784 20.1103 17.1429 20.2062 17.3134C20.07 17.3159 19.9375 17.3221 19.8142 17.335C19.722 17.3498 19.6311 17.372 19.5424 17.4015L19.5354 17.4037C19.4903 17.4177 19.4453 17.4317 19.3915 17.4452C19.2551 17.4921 19.122 17.5476 18.9927 17.6114C18.7312 17.7448 18.4977 17.9271 18.305 18.1483C18.2176 18.2467 18.1353 18.3494 18.0585 18.4562C17.982 18.5667 17.8974 18.6712 17.8052 18.769C17.7289 18.8431 17.6317 18.8921 17.5266 18.9094C17.5113 18.9131 17.4955 18.9147 17.4798 18.9143H17.3997C17.3909 18.9134 17.382 18.9134 17.3732 18.9143Z" fill="#6869E7"/>
</svg>
