<svg width="32" height="32" viewBox="0 0 40 40" fill="none" xmlns="http://www.w3.org/2000/svg">
<path d="M20.0003 39.5408C30.7922 39.5408 39.5407 30.7923 39.5407 20.0005C39.5407 9.20861 30.7922 0.460083 20.0003 0.460083C9.20849 0.460083 0.459961 9.20861 0.459961 20.0005C0.459961 30.7923 9.20849 39.5408 20.0003 39.5408Z" fill="white"/>
<path d="M20.0005 40C16.0448 40.0002 12.1779 38.8273 8.88885 36.6298C5.59977 34.4322 3.03623 31.3086 1.52244 27.6541C0.00864232 23.9995 -0.387418 19.9781 0.384344 16.0984C1.15611 12.2188 3.06103 8.65512 5.8582 5.85812C9.61421 2.13251 14.6933 0.0467859 19.9837 0.0575365C25.274 0.068287 30.3446 2.17463 34.0854 5.91548C37.8263 9.65632 39.9326 14.7269 39.9434 20.0173C39.9541 25.3076 37.8684 30.3867 34.1428 34.1427C32.2898 36.0055 30.0858 37.4824 27.6583 38.4878C25.2308 39.4932 22.628 40.0072 20.0005 40ZM20.0005 0.457669C9.2256 0.459245 0.459329 9.22552 0.459329 20.0004C0.459329 30.7753 9.2256 39.5424 20.0005 39.5424C30.7754 39.5424 39.5424 30.7753 39.5424 20.0004C39.5424 9.22552 30.7754 0.459245 20.0005 0.459245V0.457669Z" fill="url(#paint0_linear_282_11542)"/>
<path d="M12.2456 22.1179C13.1908 22.7433 14.0486 23.3136 14.9033 23.9107C15.3893 23.5168 15.8745 23.1301 16.3668 22.7488C16.8591 22.3676 17.3396 21.9981 17.8296 21.6279L17.8989 21.5751L17.9777 19.7193L12.5725 19.1735L12.2456 22.1179ZM13.8289 21.535C14.2618 21.1995 14.751 20.9437 15.2735 20.7796C15.535 20.6945 15.8115 20.5574 16.099 20.6165C16.4101 20.6632 16.6917 20.8266 16.8867 21.0734C16.8951 21.0854 16.8987 21.1002 16.8968 21.1147C16.8949 21.1293 16.8877 21.1426 16.8765 21.1522L16.8702 21.1561C16.6387 21.3115 16.3813 21.424 16.11 21.4885C15.88 21.557 15.6374 21.4609 15.3901 21.4664C14.8799 21.4704 14.371 21.5183 13.869 21.6098C13.8634 21.6113 13.8574 21.6117 13.8516 21.6109C13.8457 21.6101 13.8401 21.6081 13.8351 21.6051C13.83 21.6021 13.8256 21.5981 13.8221 21.5934C13.8186 21.5886 13.8161 21.5832 13.8147 21.5775C13.8134 21.5698 13.8139 21.5619 13.8164 21.5545C13.8189 21.547 13.8232 21.5403 13.8289 21.535Z" fill="#01BFFF"/>
<path d="M33.9182 28.3019C33.6102 27.5395 33.184 26.9353 32.65 26.5084C32.0907 26.0476 31.4038 25.7522 30.6807 25.4387L30.6256 25.415C30.2845 25.2677 29.8883 25.0937 29.4992 24.8873C29.2219 24.7297 28.9643 24.5785 28.7036 24.4249L28.4405 24.2674L27.3992 23.6419L26.8793 23.319L26.7887 23.2607C26.6422 23.1662 26.5028 23.0772 26.3397 22.9496L26.2799 22.9031C26.2616 22.8883 26.248 22.8686 26.2405 22.8464L26.2129 22.7605C26.0317 22.1974 25.8073 21.6491 25.5418 21.1205C25.5292 21.0961 25.5166 21.0748 25.5048 21.0504C25.4717 21.0567 25.4394 21.0646 25.4063 21.0701C25.2999 21.0904 25.1947 21.1167 25.0912 21.1489C25.0322 21.1662 24.9731 21.1843 24.914 21.1993C24.8048 21.2185 24.6969 21.2448 24.591 21.2781C24.5351 21.2946 24.4792 21.3111 24.4225 21.3261C24.2721 21.3788 24.125 21.4407 23.9822 21.5112C23.6979 21.6571 23.4442 21.856 23.2346 22.0973C23.1366 22.2081 23.0448 22.3244 22.9597 22.4454C22.8422 22.6126 22.7121 22.7706 22.5706 22.918C22.4102 23.0722 22.2076 23.175 21.9885 23.2134C21.9408 23.2251 21.8918 23.2304 21.8428 23.2292H21.727H21.6939L21.4379 23.2252C21.1378 23.2579 20.8528 23.3736 20.6148 23.5592C20.3581 23.7588 20.1311 23.9938 19.9405 24.2571C19.8885 24.3146 19.8405 24.3713 19.7924 24.4273C19.7514 24.8109 19.7885 25.1039 19.909 25.315C20.0531 25.5812 20.3627 25.7742 20.6675 25.9507L20.7565 26.0011C20.9046 26.0869 21.0574 26.1752 21.2118 26.2831C21.4006 26.4141 21.573 26.5672 21.7254 26.7392C21.9113 26.9408 22.0951 27.1417 22.2768 27.3417C22.6454 27.7474 22.9936 28.1294 23.3638 28.5115C23.9107 29.0848 24.4892 29.6271 25.0967 30.1357C25.608 30.5532 26.2893 31.0683 27.0266 31.344C27.3708 31.4648 27.7317 31.531 28.0963 31.5402C28.2208 31.5465 28.346 31.5496 28.472 31.5496C28.7154 31.5496 28.9769 31.5378 29.2487 31.5142C30.0245 31.4456 30.7905 31.2924 31.533 31.0573C32.4042 30.7722 33.0541 30.4342 33.5188 30.0246C33.7984 29.7726 33.9835 29.4953 34.0529 29.2243C34.0884 29.0787 34.0956 28.9276 34.0741 28.7793C34.0408 28.6147 33.9885 28.4545 33.9182 28.3019ZM30.1805 30.2554C29.9381 30.2014 29.6914 30.169 29.4433 30.1585C29.3227 30.1515 29.203 30.1932 29.0927 30.1585C28.9619 30.1226 28.8386 30.0633 28.7288 29.9837C28.7231 29.9788 28.7195 29.9719 28.7188 29.9644C28.718 29.9569 28.7202 29.9494 28.7249 29.9435C28.8246 29.8263 28.9657 29.7521 29.1187 29.7363C29.2597 29.7127 29.3913 29.7836 29.5173 29.8301C29.7683 29.9195 30.0014 30.0529 30.2057 30.2239C30.2089 30.2267 30.2113 30.2303 30.2125 30.2343C30.2138 30.2384 30.2139 30.2427 30.2128 30.2468C30.2116 30.2497 30.2096 30.2524 30.2072 30.2545C30.2048 30.2566 30.2019 30.2581 30.1988 30.2589C30.1957 30.2598 30.1924 30.2599 30.1893 30.2593C30.1861 30.2587 30.1831 30.2574 30.1805 30.2554ZM33.2864 28.3571C33.2354 28.4829 33.162 28.5984 33.0698 28.6982C32.9958 28.788 32.8721 28.8155 32.7728 28.8848C32.5682 29.0259 32.3758 29.184 32.1978 29.3575C32.1959 29.3596 32.1935 29.3614 32.1909 29.3626C32.1882 29.3638 32.1854 29.3644 32.1825 29.3644C32.1796 29.3644 32.1767 29.3638 32.174 29.3626C32.1714 29.3614 32.169 29.3596 32.1671 29.3575C32.1641 29.3546 32.162 29.3509 32.1611 29.3468C32.1601 29.3428 32.1603 29.3386 32.1616 29.3346C32.2451 29.0817 32.3728 28.8457 32.5389 28.6375C32.6216 28.532 32.6964 28.4012 32.828 28.3476C32.9662 28.2821 33.1242 28.2717 33.2699 28.3185C33.2734 28.3196 33.2768 28.3213 33.2796 28.3237C33.2825 28.3261 33.2848 28.329 33.2865 28.3323C33.2882 28.3357 33.2892 28.3393 33.2895 28.343C33.2897 28.3467 33.2892 28.3504 33.288 28.3539L33.2864 28.3571Z" fill="#01BFFF"/>
<path d="M20.0006 1.6156C9.8629 1.6156 1.61572 9.86278 1.61572 20.0004C1.61572 30.1381 9.8629 38.3845 20.0006 38.3845C30.1382 38.3845 38.3846 30.1373 38.3846 20.0004C38.3846 9.86357 30.1374 1.6156 20.0006 1.6156ZM18.4133 21.7806C18.4129 21.7981 18.4087 21.8152 18.4009 21.8309C18.3932 21.8465 18.3821 21.8603 18.3684 21.8712L18.1699 22.0287C17.6824 22.4155 17.1948 22.8023 16.6993 23.1796C16.196 23.5734 15.6848 23.9515 15.1736 24.3328L14.9845 24.4738C14.964 24.489 14.9392 24.4973 14.9136 24.4974C14.888 24.4974 14.8632 24.4891 14.8427 24.4738L14.7639 24.4178C13.7943 23.6939 12.8735 22.963 12.0149 22.2824C11.9997 22.2702 11.9878 22.2545 11.9801 22.2367C11.9724 22.2188 11.9692 22.1994 11.9708 22.18L12.2425 18.9126C12.2449 18.8832 12.2583 18.8557 12.2801 18.8357C12.3018 18.8157 12.3303 18.8046 12.3599 18.8047L18.3417 19.2836C18.3715 19.2862 18.3993 19.3 18.4195 19.3222C18.4397 19.3444 18.4507 19.3734 18.4504 19.4034L18.4133 21.7806ZM34.0452 30.6225C33.3197 31.2574 32.4532 31.5961 31.7727 31.823C30.9746 32.0759 30.1513 32.2407 29.3174 32.3145C29.0181 32.3413 28.7416 32.3539 28.4714 32.3539C28.332 32.3539 28.1918 32.3499 28.0516 32.3428C27.6081 32.3295 27.1694 32.2474 26.7511 32.0994C25.9122 31.7844 25.2175 31.2684 24.592 30.7604C23.9617 30.2327 23.3616 29.6699 22.7945 29.0747C22.4148 28.6808 22.0438 28.276 21.6847 27.8813C21.504 27.6828 21.3247 27.4867 21.1467 27.2929C21.0327 27.1623 20.9034 27.0459 20.7615 26.9463C20.6362 26.8589 20.4976 26.7793 20.3503 26.6943L20.2715 26.6478C19.9643 26.4698 19.4988 26.2004 19.2199 25.7254C18.9261 25.2236 18.9435 24.6675 19.0104 24.2894C19.0844 23.8513 19.2197 23.4257 19.4121 23.0252C19.4767 22.9078 19.5561 22.7993 19.6485 22.7022C19.7358 22.6133 19.8324 22.5341 19.9368 22.4659C19.9965 22.4271 20.0508 22.3805 20.0982 22.3273C20.1409 22.2696 20.1773 22.2075 20.2069 22.1422C20.2421 22.0683 20.2711 21.9916 20.2936 21.913C20.3283 21.7946 20.3725 21.6792 20.4259 21.5679C20.5401 21.3561 20.6948 21.1688 20.8812 21.0166C21.2177 20.7456 21.5928 20.5265 21.9942 20.3667C22.3797 20.2088 22.7771 20.0821 23.1828 19.9878C23.586 19.8913 23.997 19.8307 24.4109 19.8067C24.4944 19.8027 24.5771 19.7996 24.6606 19.7996H24.6779C24.648 19.7665 24.618 19.7342 24.5881 19.7035C24.5211 19.6326 24.4439 19.5601 24.3644 19.4845L24.2612 19.3884C24.1304 19.2631 24.0186 19.1521 23.9201 19.0371C23.8071 18.9124 23.7018 18.7809 23.6051 18.6432L23.5263 18.5306C23.4656 18.4392 23.4144 18.3628 23.3498 18.2785C23.0047 17.8332 22.5768 17.4587 22.0895 17.1758C21.5759 16.8607 21.012 16.6716 20.4779 16.5007C19.9091 16.3124 19.3306 16.1546 18.745 16.0281C18.1393 15.8937 17.5213 15.8232 16.901 15.8178C16.3557 15.8142 15.8124 15.885 15.2862 16.0281C14.3 16.2935 13.3075 16.852 12.2504 17.7358C11.7909 18.1217 11.3528 18.5324 10.9381 18.9662C10.8215 19.0867 10.7018 19.2072 10.5868 19.3262C10.2851 19.6334 9.97397 19.9516 9.68725 20.2785C8.96729 21.0843 8.30563 22.024 7.60537 23.2347C6.99963 24.2831 6.42382 25.3765 5.86219 26.4343L5.84801 26.4611C5.83796 26.4802 5.82288 26.4961 5.80442 26.5072C5.78595 26.5183 5.7648 26.5242 5.74325 26.5241C4.55462 26.4501 3.80631 25.1457 4.41913 24.1799L17.8706 2.96886C18.2936 2.30168 19.3515 2.30168 19.7745 2.96886L23.6649 9.10108C23.9646 9.56591 24.124 10.1073 24.124 10.6603C24.124 11.2134 23.9646 11.7547 23.6649 12.2196L21.3018 15.9422C21.7162 16.0858 22.1152 16.2705 22.4928 16.4936C23.0687 16.8278 23.5743 17.2705 23.9816 17.7972C24.054 17.8902 24.1289 18.002 24.1919 18.0981L24.2533 18.1895C24.3326 18.3016 24.4183 18.4089 24.5101 18.5109C24.6046 18.6157 24.7055 18.7181 24.8102 18.8197L24.8992 18.904C24.9536 18.9544 25.0095 19.0087 25.0662 19.0615L26.4841 16.8221C26.9457 16.095 28.0989 16.095 28.5604 16.8221L33.4064 24.4627C33.5566 24.6952 33.6222 24.9724 33.592 25.2475C33.5619 25.5227 33.4379 25.7791 33.2409 25.9735C33.8293 26.4745 34.3161 27.1724 34.6493 28.0034C34.7448 28.2172 34.8141 28.4418 34.8557 28.6722C34.8927 28.924 34.8798 29.1807 34.8179 29.4276C34.7068 29.8585 34.4469 30.261 34.0452 30.6225Z" fill="url(#paint1_linear_282_11542)"/>
<path d="M21.4194 22.7731L21.703 22.777C21.7142 22.776 21.7256 22.776 21.7368 22.777H21.8392C21.8594 22.7776 21.8795 22.7755 21.8991 22.7707C22.0333 22.7487 22.1576 22.686 22.2551 22.5911C22.373 22.4661 22.4812 22.3323 22.5789 22.191C22.6771 22.0544 22.7823 21.923 22.894 21.7971C23.1403 21.5141 23.4388 21.2809 23.773 21.1103C23.9382 21.0286 24.1084 20.9576 24.2827 20.8976C24.3551 20.8795 24.415 20.8606 24.4757 20.8417C24.589 20.804 24.7051 20.7756 24.823 20.7566C24.9806 20.7401 25.1499 20.7322 25.324 20.729C25.2015 20.5109 25.0657 20.3005 24.9176 20.0989H24.9113C24.7532 20.1002 24.5953 20.1115 24.4386 20.1327C24.0487 20.1869 23.6638 20.2728 23.2878 20.3895C22.3631 20.6786 21.7187 21.0126 21.2595 21.438C21.1393 21.5496 21.0417 21.6833 20.972 21.8318C20.9428 21.9062 20.9196 21.9829 20.9027 22.061C20.8759 22.1766 20.8409 22.29 20.7979 22.4005C20.752 22.519 20.6929 22.6318 20.6215 22.7369C20.5405 22.8437 20.4453 22.9391 20.3387 23.0204C20.2151 23.1016 20.1177 23.2167 20.0583 23.3521C20.0378 23.3985 20.0212 23.4505 20.0039 23.5009C20.1103 23.3939 20.2237 23.2942 20.3434 23.2024C20.654 22.96 21.0272 22.8111 21.4194 22.7731Z" fill="#01BFFF"/>
<path d="M12.2456 22.1179C13.1908 22.7433 14.0486 23.3136 14.9033 23.9107C15.3893 23.5168 15.8745 23.1301 16.3668 22.7488C16.8591 22.3676 17.3396 21.9981 17.8296 21.6279L17.8989 21.5751L17.9777 19.7193L12.5725 19.1735L12.2456 22.1179ZM13.8289 21.535C14.2618 21.1995 14.751 20.9437 15.2735 20.7796C15.535 20.6945 15.8115 20.5574 16.099 20.6165C16.4101 20.6632 16.6917 20.8266 16.8867 21.0734C16.8951 21.0854 16.8987 21.1002 16.8968 21.1147C16.8949 21.1293 16.8877 21.1426 16.8765 21.1522L16.8702 21.1561C16.6387 21.3115 16.3813 21.424 16.11 21.4885C15.88 21.557 15.6374 21.4609 15.3901 21.4664C14.8799 21.4704 14.371 21.5183 13.869 21.6098C13.8634 21.6113 13.8574 21.6117 13.8516 21.6109C13.8457 21.6101 13.8401 21.6081 13.8351 21.6051C13.83 21.6021 13.8256 21.5981 13.8221 21.5934C13.8186 21.5886 13.8161 21.5832 13.8147 21.5775C13.8134 21.5698 13.8139 21.5619 13.8164 21.5545C13.8189 21.547 13.8232 21.5403 13.8289 21.535Z" fill="url(#paint2_linear_282_11542)"/>
<path d="M33.9182 28.3019C33.6102 27.5395 33.184 26.9353 32.65 26.5084C32.0907 26.0476 31.4038 25.7522 30.6807 25.4387L30.6256 25.415C30.2845 25.2677 29.8883 25.0937 29.4992 24.8873C29.2219 24.7297 28.9643 24.5785 28.7036 24.4249L28.4405 24.2674L27.3992 23.6419L26.8793 23.319L26.7887 23.2607C26.6422 23.1662 26.5028 23.0772 26.3397 22.9496L26.2799 22.9031C26.2616 22.8883 26.248 22.8686 26.2405 22.8464L26.2129 22.7605C26.0317 22.1974 25.8073 21.6491 25.5418 21.1205C25.5292 21.0961 25.5166 21.0748 25.5048 21.0504C25.4717 21.0567 25.4394 21.0646 25.4063 21.0701C25.2999 21.0904 25.1947 21.1167 25.0912 21.1489C25.0322 21.1662 24.9731 21.1843 24.914 21.1993C24.8048 21.2185 24.6969 21.2448 24.591 21.2781C24.5351 21.2946 24.4792 21.3111 24.4225 21.3261C24.2721 21.3788 24.125 21.4407 23.9822 21.5112C23.6979 21.6571 23.4442 21.856 23.2346 22.0973C23.1366 22.2081 23.0448 22.3244 22.9597 22.4454C22.8422 22.6126 22.7121 22.7706 22.5706 22.918C22.4102 23.0722 22.2076 23.175 21.9885 23.2134C21.9408 23.2251 21.8918 23.2304 21.8428 23.2292H21.727H21.6939L21.4379 23.2252C21.1378 23.2579 20.8528 23.3736 20.6148 23.5592C20.3581 23.7588 20.1311 23.9938 19.9405 24.2571C19.8885 24.3146 19.8405 24.3713 19.7924 24.4273C19.7514 24.8109 19.7885 25.1039 19.909 25.315C20.0531 25.5812 20.3627 25.7742 20.6675 25.9507L20.7565 26.0011C20.9046 26.0869 21.0574 26.1752 21.2118 26.2831C21.4006 26.4141 21.573 26.5672 21.7254 26.7392C21.9113 26.9408 22.0951 27.1417 22.2768 27.3417C22.6454 27.7474 22.9936 28.1294 23.3638 28.5115C23.9107 29.0848 24.4892 29.6271 25.0967 30.1357C25.608 30.5532 26.2893 31.0683 27.0266 31.344C27.3708 31.4648 27.7317 31.531 28.0963 31.5402C28.2208 31.5465 28.346 31.5496 28.472 31.5496C28.7154 31.5496 28.9769 31.5378 29.2487 31.5142C30.0245 31.4456 30.7905 31.2924 31.533 31.0573C32.4042 30.7722 33.0541 30.4342 33.5188 30.0246C33.7984 29.7726 33.9835 29.4953 34.0529 29.2243C34.0884 29.0787 34.0956 28.9276 34.0741 28.7793C34.0408 28.6147 33.9885 28.4545 33.9182 28.3019ZM30.1805 30.2554C29.9381 30.2014 29.6914 30.169 29.4433 30.1585C29.3227 30.1515 29.203 30.1932 29.0927 30.1585C28.9619 30.1226 28.8386 30.0633 28.7288 29.9837C28.7231 29.9788 28.7195 29.9719 28.7188 29.9644C28.718 29.9569 28.7202 29.9494 28.7249 29.9435C28.8246 29.8263 28.9657 29.7521 29.1187 29.7363C29.2597 29.7127 29.3913 29.7836 29.5173 29.8301C29.7683 29.9195 30.0014 30.0529 30.2057 30.2239C30.2089 30.2267 30.2113 30.2303 30.2125 30.2343C30.2138 30.2384 30.2139 30.2427 30.2128 30.2468C30.2116 30.2497 30.2096 30.2524 30.2072 30.2545C30.2048 30.2566 30.2019 30.2581 30.1988 30.2589C30.1957 30.2598 30.1924 30.2599 30.1893 30.2593C30.1861 30.2587 30.1831 30.2574 30.1805 30.2554ZM33.2864 28.3571C33.2354 28.4829 33.162 28.5984 33.0698 28.6982C32.9958 28.788 32.8721 28.8155 32.7728 28.8848C32.5682 29.0259 32.3758 29.184 32.1978 29.3575C32.1959 29.3596 32.1935 29.3614 32.1909 29.3626C32.1882 29.3638 32.1854 29.3644 32.1825 29.3644C32.1796 29.3644 32.1767 29.3638 32.174 29.3626C32.1714 29.3614 32.169 29.3596 32.1671 29.3575C32.1641 29.3546 32.162 29.3509 32.1611 29.3468C32.1601 29.3428 32.1603 29.3386 32.1616 29.3346C32.2451 29.0817 32.3728 28.8457 32.5389 28.6375C32.6216 28.532 32.6964 28.4012 32.828 28.3476C32.9662 28.2821 33.1242 28.2717 33.2699 28.3185C33.2734 28.3196 33.2768 28.3213 33.2796 28.3237C33.2825 28.3261 33.2848 28.329 33.2865 28.3323C33.2882 28.3357 33.2892 28.3393 33.2895 28.343C33.2897 28.3467 33.2892 28.3504 33.288 28.3539L33.2864 28.3571Z" fill="url(#paint3_linear_282_11542)"/>
<path d="M20.0006 1.6156C9.8629 1.6156 1.61572 9.86278 1.61572 20.0004C1.61572 30.1381 9.8629 38.3845 20.0006 38.3845C30.1382 38.3845 38.3846 30.1373 38.3846 20.0004C38.3846 9.86357 30.1374 1.6156 20.0006 1.6156ZM18.4133 21.7806C18.4129 21.7981 18.4087 21.8152 18.4009 21.8309C18.3932 21.8465 18.3821 21.8603 18.3684 21.8712L18.1699 22.0287C17.6824 22.4155 17.1948 22.8023 16.6993 23.1796C16.196 23.5734 15.6848 23.9515 15.1736 24.3328L14.9845 24.4738C14.964 24.489 14.9392 24.4973 14.9136 24.4974C14.888 24.4974 14.8632 24.4891 14.8427 24.4738L14.7639 24.4178C13.7943 23.6939 12.8735 22.963 12.0149 22.2824C11.9997 22.2702 11.9878 22.2545 11.9801 22.2367C11.9724 22.2188 11.9692 22.1994 11.9708 22.18L12.2425 18.9126C12.2449 18.8832 12.2583 18.8557 12.2801 18.8357C12.3018 18.8157 12.3303 18.8046 12.3599 18.8047L18.3417 19.2836C18.3715 19.2862 18.3993 19.3 18.4195 19.3222C18.4397 19.3444 18.4507 19.3734 18.4504 19.4034L18.4133 21.7806ZM34.0452 30.6225C33.3197 31.2574 32.4532 31.5961 31.7727 31.823C30.9746 32.0759 30.1513 32.2407 29.3174 32.3145C29.0181 32.3413 28.7416 32.3539 28.4714 32.3539C28.332 32.3539 28.1918 32.3499 28.0516 32.3428C27.6081 32.3295 27.1694 32.2474 26.7511 32.0994C25.9122 31.7844 25.2175 31.2684 24.592 30.7604C23.9617 30.2327 23.3616 29.6699 22.7945 29.0747C22.4148 28.6808 22.0438 28.276 21.6847 27.8813C21.504 27.6828 21.3247 27.4867 21.1467 27.2929C21.0327 27.1623 20.9034 27.0459 20.7615 26.9463C20.6362 26.8589 20.4976 26.7793 20.3503 26.6943L20.2715 26.6478C19.9643 26.4698 19.4988 26.2004 19.2199 25.7254C18.9261 25.2236 18.9435 24.6675 19.0104 24.2894C19.0844 23.8513 19.2197 23.4257 19.4121 23.0252C19.4767 22.9078 19.5561 22.7993 19.6485 22.7022C19.7358 22.6133 19.8324 22.5341 19.9368 22.4659C19.9965 22.4271 20.0508 22.3805 20.0982 22.3273C20.1409 22.2696 20.1773 22.2075 20.2069 22.1422C20.2421 22.0683 20.2711 21.9916 20.2936 21.913C20.3283 21.7946 20.3725 21.6792 20.4259 21.5679C20.5401 21.3561 20.6948 21.1688 20.8812 21.0166C21.2177 20.7456 21.5928 20.5265 21.9942 20.3667C22.3797 20.2088 22.7771 20.0821 23.1828 19.9878C23.586 19.8913 23.997 19.8307 24.4109 19.8067C24.4944 19.8027 24.5771 19.7996 24.6606 19.7996H24.6779C24.648 19.7665 24.618 19.7342 24.5881 19.7035C24.5211 19.6326 24.4439 19.5601 24.3644 19.4845L24.2612 19.3884C24.1304 19.2631 24.0186 19.1521 23.9201 19.0371C23.8071 18.9124 23.7018 18.7809 23.6051 18.6432L23.5263 18.5306C23.4656 18.4392 23.4144 18.3628 23.3498 18.2785C23.0047 17.8332 22.5768 17.4587 22.0895 17.1758C21.5759 16.8607 21.012 16.6716 20.4779 16.5007C19.9091 16.3124 19.3306 16.1546 18.745 16.0281C18.1393 15.8937 17.5213 15.8232 16.901 15.8178C16.3557 15.8142 15.8124 15.885 15.2862 16.0281C14.3 16.2935 13.3075 16.852 12.2504 17.7358C11.7909 18.1217 11.3528 18.5324 10.9381 18.9662C10.8215 19.0867 10.7018 19.2072 10.5868 19.3262C10.2851 19.6334 9.97397 19.9516 9.68725 20.2785C8.96729 21.0843 8.30563 22.024 7.60537 23.2347C6.99963 24.2831 6.42382 25.3765 5.86219 26.4343L5.84801 26.4611C5.83796 26.4802 5.82288 26.4961 5.80442 26.5072C5.78595 26.5183 5.7648 26.5242 5.74325 26.5241C4.55462 26.4501 3.80631 25.1457 4.41913 24.1799L17.8706 2.96886C18.2936 2.30168 19.3515 2.30168 19.7745 2.96886L23.6649 9.10108C23.9646 9.56591 24.124 10.1073 24.124 10.6603C24.124 11.2134 23.9646 11.7547 23.6649 12.2196L21.3018 15.9422C21.7162 16.0858 22.1152 16.2705 22.4928 16.4936C23.0687 16.8278 23.5743 17.2705 23.9816 17.7972C24.054 17.8902 24.1289 18.002 24.1919 18.0981L24.2533 18.1895C24.3326 18.3016 24.4183 18.4089 24.5101 18.5109C24.6046 18.6157 24.7055 18.7181 24.8102 18.8197L24.8992 18.904C24.9536 18.9544 25.0095 19.0087 25.0662 19.0615L26.4841 16.8221C26.9457 16.095 28.0989 16.095 28.5604 16.8221L33.4064 24.4627C33.5566 24.6952 33.6222 24.9724 33.592 25.2475C33.5619 25.5227 33.4379 25.7791 33.2409 25.9735C33.8293 26.4745 34.3161 27.1724 34.6493 28.0034C34.7448 28.2172 34.8141 28.4418 34.8557 28.6722C34.8927 28.924 34.8798 29.1807 34.8179 29.4276C34.7068 29.8585 34.4469 30.261 34.0452 30.6225Z" fill="url(#paint4_linear_282_11542)"/>
<path d="M21.4194 22.7731L21.703 22.777C21.7142 22.776 21.7256 22.776 21.7368 22.777H21.8392C21.8594 22.7776 21.8795 22.7755 21.8991 22.7707C22.0333 22.7487 22.1576 22.686 22.2551 22.5911C22.373 22.4661 22.4812 22.3323 22.5789 22.191C22.6771 22.0544 22.7823 21.923 22.894 21.7971C23.1403 21.5141 23.4388 21.2809 23.773 21.1103C23.9382 21.0286 24.1084 20.9576 24.2827 20.8976C24.3551 20.8795 24.415 20.8606 24.4757 20.8417C24.589 20.804 24.7051 20.7756 24.823 20.7566C24.9806 20.7401 25.1499 20.7322 25.324 20.729C25.2015 20.5109 25.0657 20.3005 24.9176 20.0989H24.9113C24.7532 20.1002 24.5953 20.1115 24.4386 20.1327C24.0487 20.1869 23.6638 20.2728 23.2878 20.3895C22.3631 20.6786 21.7187 21.0126 21.2595 21.438C21.1393 21.5496 21.0417 21.6833 20.972 21.8318C20.9428 21.9062 20.9196 21.9829 20.9027 22.061C20.8759 22.1766 20.8409 22.29 20.7979 22.4005C20.752 22.519 20.6929 22.6318 20.6215 22.7369C20.5405 22.8437 20.4453 22.9391 20.3387 23.0204C20.2151 23.1016 20.1177 23.2167 20.0583 23.3521C20.0378 23.3985 20.0212 23.4505 20.0039 23.5009C20.1103 23.3939 20.2237 23.2942 20.3434 23.2024C20.654 22.96 21.0272 22.8111 21.4194 22.7731Z" fill="url(#paint5_linear_282_11542)"/>
<defs>
<linearGradient id="paint0_linear_282_11542" x1="0.406553" y1="17.1781" x2="40.0064" y2="22.8818" gradientUnits="userSpaceOnUse">
<stop stop-color="#00BB2E"/>
<stop offset="0.53" stop-color="#0091DE"/>
<stop offset="0.67" stop-color="#0097D9"/>
<stop offset="0.86" stop-color="#00A7CB"/>
<stop offset="1" stop-color="#00B8BC"/>
</linearGradient>
<linearGradient id="paint1_linear_282_11542" x1="4.05049" y1="4.05037" x2="36.7454" y2="36.7453" gradientUnits="userSpaceOnUse">
<stop offset="0.02" stop-color="#00F856"/>
<stop offset="0.05" stop-color="#00EB67"/>
<stop offset="0.11" stop-color="#00D08B"/>
<stop offset="0.18" stop-color="#00B9A9"/>
<stop offset="0.25" stop-color="#00A7C1"/>
<stop offset="0.33" stop-color="#009BD1"/>
<stop offset="0.42" stop-color="#0093DB"/>
<stop offset="0.53" stop-color="#0091DE"/>
<stop offset="0.6" stop-color="#0097E2"/>
<stop offset="0.7" stop-color="#00A7EE"/>
<stop offset="0.8" stop-color="#01BFFF"/>
<stop offset="1" stop-color="#00D0FF"/>
</linearGradient>
<linearGradient id="paint2_linear_282_11542" x1="4.23946" y1="3.35653" x2="39.3565" y2="40.4413" gradientUnits="userSpaceOnUse">
<stop offset="0.04" stop-color="#00D18A"/>
<stop offset="0.1" stop-color="#00C997"/>
<stop offset="0.36" stop-color="#00A6D1"/>
<stop offset="0.49" stop-color="#0098E8"/>
<stop offset="0.59" stop-color="#00A0ED"/>
<stop offset="0.74" stop-color="#01B5F9"/>
<stop offset="0.8" stop-color="#01BFFF"/>
<stop offset="1" stop-color="#00B5BF"/>
</linearGradient>
<linearGradient id="paint3_linear_282_11542" x1="4.23935" y1="3.3564" x2="39.3564" y2="40.4411" gradientUnits="userSpaceOnUse">
<stop offset="0.04" stop-color="#00D18A"/>
<stop offset="0.1" stop-color="#00C997"/>
<stop offset="0.36" stop-color="#00A6D1"/>
<stop offset="0.49" stop-color="#0098E8"/>
<stop offset="0.59" stop-color="#00A0ED"/>
<stop offset="0.74" stop-color="#01B5F9"/>
<stop offset="0.8" stop-color="#01BFFF"/>
<stop offset="1" stop-color="#00B5BF"/>
</linearGradient>
<linearGradient id="paint4_linear_282_11542" x1="4.23954" y1="3.35641" x2="39.3566" y2="40.4411" gradientUnits="userSpaceOnUse">
<stop offset="0.04" stop-color="#00D18A"/>
<stop offset="0.1" stop-color="#00C997"/>
<stop offset="0.36" stop-color="#00A6D1"/>
<stop offset="0.49" stop-color="#0098E8"/>
<stop offset="0.59" stop-color="#00A0ED"/>
<stop offset="0.74" stop-color="#01B5F9"/>
<stop offset="0.8" stop-color="#01BFFF"/>
<stop offset="1" stop-color="#00B5BF"/>
</linearGradient>
<linearGradient id="paint5_linear_282_11542" x1="4.23974" y1="3.3564" x2="39.3568" y2="40.4411" gradientUnits="userSpaceOnUse">
<stop offset="0.04" stop-color="#00D18A"/>
<stop offset="0.1" stop-color="#00C997"/>
<stop offset="0.36" stop-color="#00A6D1"/>
<stop offset="0.49" stop-color="#0098E8"/>
<stop offset="0.59" stop-color="#00A0ED"/>
<stop offset="0.74" stop-color="#01B5F9"/>
<stop offset="0.8" stop-color="#01BFFF"/>
<stop offset="1" stop-color="#00B5BF"/>
</linearGradient>
</defs>
</svg>
