<svg width="115" height="17" viewBox="0 0 115 17" fill="none" xmlns="http://www.w3.org/2000/svg">
<path d="M6.29873 16.2334L0.78418 1.58743H2.69226L7.32616 14.3712L12.002 1.58743H13.8681L8.35358 16.2334H6.29873Z" fill="white"/>
<path d="M21.332 16.2334V1.58743H30.4111V3.0311H23.0933V8.13626H29.7821V9.55901H23.0933V14.7897H30.4111V16.2334H21.332Z" fill="white"/>
<path d="M45.7611 16.5038C44.1653 16.5038 42.7954 16.1658 41.6514 15.4898C40.5073 14.7988 39.6266 13.845 39.0094 12.6282C38.3922 11.3965 38.0836 9.97692 38.0836 8.36963C38.0836 6.76233 38.3922 5.3428 39.0094 4.11103C39.6266 2.87927 40.5073 1.9179 41.6514 1.22691C42.7954 0.535923 44.1653 0.19043 45.7611 0.19043C47.6578 0.19043 49.2084 0.663605 50.4127 1.60996C51.6321 2.54129 52.3923 3.85567 52.6934 5.5531H49.5095C49.3138 4.69687 48.8923 4.02842 48.2449 3.54773C47.6127 3.05202 46.7697 2.80417 45.7159 2.80417C44.2557 2.80417 43.1116 3.29988 42.2836 4.29129C41.4557 5.28271 41.0417 6.64216 41.0417 8.36963C41.0417 10.0971 41.4557 11.4565 42.2836 12.448C43.1116 13.4244 44.2557 13.9126 45.7159 13.9126C46.7697 13.9126 47.6127 13.6872 48.2449 13.2366C48.8923 12.7709 49.3138 12.1325 49.5095 11.3213H52.6934C52.3923 12.9437 51.6321 14.213 50.4127 15.1293C49.2084 16.0456 47.6578 16.5038 45.7611 16.5038Z" fill="white"/>
<path d="M64.6051 16.2334V2.78163H59.9986V0.460816H72.1245V2.78163H67.4954V16.2334H64.6051Z" fill="white"/>
<path d="M86.9698 16.5038C85.3891 16.5038 84.0042 16.1583 82.8149 15.4673C81.6407 14.7763 80.7149 13.8224 80.0375 12.6057C79.3751 11.3739 79.0439 9.95439 79.0439 8.34709C79.0439 6.7398 79.3751 5.32778 80.0375 4.11103C80.7149 2.87927 81.6407 1.9179 82.8149 1.22691C84.0042 0.535923 85.3891 0.19043 86.9698 0.19043C88.5354 0.19043 89.9128 0.535923 91.1021 1.22691C92.2913 1.9179 93.2171 2.87927 93.8795 4.11103C94.5419 5.32778 94.873 6.7398 94.873 8.34709C94.873 9.95439 94.5419 11.3739 93.8795 12.6057C93.2171 13.8224 92.2913 14.7763 91.1021 15.4673C89.9128 16.1583 88.5354 16.5038 86.9698 16.5038ZM86.9698 13.9126C88.4752 13.9126 89.6719 13.4168 90.5601 12.4254C91.4633 11.434 91.915 10.0746 91.915 8.34709C91.915 6.61962 91.4633 5.26018 90.5601 4.26876C89.6719 3.27734 88.4752 2.78163 86.9698 2.78163C85.4644 2.78163 84.2601 3.27734 83.3568 4.26876C82.4536 5.26018 82.002 6.61962 82.002 8.34709C82.002 10.0746 82.4536 11.434 83.3568 12.4254C84.2601 13.4168 85.4644 13.9126 86.9698 13.9126Z" fill="white"/>
<path d="M103.296 16.2334V0.460816H109.099C110.364 0.460816 111.403 0.678627 112.215 1.11425C113.043 1.53485 113.661 2.11318 114.067 2.84923C114.474 3.57026 114.677 4.37391 114.677 5.26018C114.677 6.22155 114.421 7.10031 113.909 7.89645C113.412 8.69259 112.629 9.27091 111.561 9.63143L114.835 16.2334H111.515L108.58 10.0145H106.186V16.2334H103.296ZM106.186 7.89645H108.919C109.882 7.89645 110.59 7.66362 111.041 7.19795C111.493 6.73228 111.719 6.1164 111.719 5.35031C111.719 4.59923 111.493 3.99837 111.041 3.54773C110.605 3.09708 109.89 2.87176 108.896 2.87176H106.186V7.89645Z" fill="white"/>
</svg>
